<?xml version="1.0" encoding="UTF-8" standalone="no"?> <!-- Created with Vectornator for iOS (http://vectornator.io/) --><!DOCTYPE svg PUBLIC "-//W3C//DTD SVG 1.1//EN" "http://www.w3.org/Graphics/SVG/1.1/DTD/svg11.dtd">
<svg height="100%" style="fill-rule:evenodd;clip-rule:evenodd;stroke-linecap:round;stroke-linejoin:round;" xmlns:xlink="http://www.w3.org/1999/xlink" xmlns="http://www.w3.org/2000/svg" xml:space="preserve" width="100%" xmlns:vectornator="http://vectornator.io" version="1.1" viewBox="0 0 800 800">
<metadata>
<vectornator:setting key="DisplayWhiteBackground" value="0"/>
<vectornator:setting key="RulersVisible" value="1"/>
<vectornator:setting key="SnapToEdges" value="0"/>
<vectornator:setting key="Units" value="Pixels"/>
<vectornator:setting key="DynamicGuides" value="0"/>
<vectornator:setting key="SnapToPoints" value="0"/>
<vectornator:setting key="SnapToGrid" value="0"/>
<vectornator:setting key="SnapToGuides" value="1"/>
<vectornator:setting key="ShowGrid" value="1"/>
<vectornator:setting key="GridSpacing" value="30"/>
</metadata>
<defs/>
<g id="Layer 1" vectornator:layerName="Layer 1">
<path stroke="#000000" stroke-width="0.1" d="M7.9375+62C7.14682+62.0586+6.7632+62.1108+6.21875+62.2902C4.90531+62.7228+4.05349+63.5933+4+65.1049L4+83.6183C4+86.0357+6.12848+88+8.75+88L18.6972+88.0139C20.008+88.0139+21.2132+87.5292+22.0722+86.7371L22.3125+86.7232C25.4496+86.7232+26+84.345+26+81.4129L26+67.2812C26+64.3492+23.4496+62+20.3125+62C18.7682+62+7.9375+62+7.9375+62ZM7.9375+63.8281C7.9375+63.8281+7.96862+63.8281+7.96875+63.8281C8.02105+63.8281+18.8941+63.8281+20.3125+63.8281C22.4184+63.8281+24.0938+65.3786+24.0938+67.2812L24.0572+81.3007C24.0308+82.6623+23.704+84.3102+23.0639+84.3375C23.0955+83.6805+23.0937+84.0219+23.0938+83.6183L23.0938+69.4866C23.0938+67.0693+20.9653+65.1049+18.3438+65.1049L8+65.1049C7.54094+65.0936+7.2781+64.7495+7.28125+64.4665C7.28433+64.1899+7.5187+63.9049+7.9375+63.8281Z" fill="#000000" stroke-linecap="butt" opacity="1" stroke-linejoin="round"/>
<path d="M74.9607+4C74.5089+4+74.1425+4.3731+74.1425+4.83333L74.1425+15.5365L71.8414+13.5573C71.4953+13.2615+70.9813+13.3089+70.6908+13.6615C70.4004+14.014+70.447+14.5375+70.7931+14.8333L74.3471+17.9062C74.3674+17.9286+74.6261+18.1671+74.9607+18.1667C75.2953+18.1663+75.5434+17.9121+75.5488+17.9062L79.2306+14.7812C79.5768+14.4854+79.6233+13.9619+79.3329+13.6094C79.0424+13.2568+78.5285+13.2094+78.1823+13.5052L75.7789+15.5625L75.7789+4.83333C75.7789+4.3731+75.4126+4+74.9607+4Z" opacity="1" fill="#000000"/>
<path d="M96+4C94.895+4+94+4.89707+94+6L94+13.5312L94+20.6562L94+23.9688C94+25.0717+94.895+25.9688+96+25.9688L114+26C115.105+26+116+25.1029+116+24L116+20.6562L116+8.34375C116+8.34375+115.991+8.1657+115.938+8.03125C115.884+7.8968+115.781+7.78125+115.781+7.78125L112.344+4.34375C112.344+4.34375+112.186+4.17942+111.969+4.09375C111.752+4.00808+111.469+4+111.469+4L110+4L110+10C110+10.551+109.552+11+109+11L100+11C99.448+11+99+10.551+99+10L99+4L96+4ZM99.5+15L110.5+15C111.328+15+112+15.6716+112+16.5L112+21.5C112+22.3284+111.328+23+110.5+23L99.5+23C98.6716+23+98+22.3284+98+21.5L98+16.5C98+15.6716+98.6716+15+99.5+15ZM106.724+4L107.281+4C107.676+4+107.997+4.31974+107.997+4.71415L107.997+8.27379C107.997+8.6682+107.676+8.98794+107.281+8.98794L106.724+8.98794C106.329+8.98794+106.009+8.6682+106.009+8.27379L106.009+4.71415C106.009+4.31974+106.329+4+106.724+4Z" opacity="1" fill="#000000"/>
<path d="M125.818+6C124.814+6+124+6.81551+124+7.81818L124+14.6648L124+21.142L124+24.1534C124+25.1561+124.814+25.9716+125.818+25.9716L142.182+26C143.186+26+144+25.1845+144+24.1818L144+21.142L144+9.94886C144+9.94886+143.991+9.787+143.943+9.66477C143.895+9.54254+143.801+9.4375+143.801+9.4375L140.676+6.3125C140.676+6.3125+140.532+6.16311+140.335+6.08523C140.138+6.00735+139.881+6+139.881+6L138.545+6L138.545+11.4545C138.545+11.9554+138.138+12.3637+137.636+12.3636L129.455+12.3636C128.953+12.3636+128.545+11.9554+128.545+11.4545L128.545+6L125.818+6ZM129+16L139+16C139.753+16+140.364+16.6105+140.364+17.3636L140.364+21.9091C140.364+22.6622+139.753+23.2727+139+23.2727L129+23.2727C128.247+23.2727+127.636+22.6622+127.636+21.9091L127.636+17.3636C127.636+16.6105+128.247+16+129+16ZM135.568+6L136.074+6C136.433+6+136.724+6.29067+136.724+6.64923L136.724+9.88526C136.724+10.2438+136.433+10.5345+136.074+10.5345L135.568+10.5345C135.208+10.5345+134.917+10.2438+134.917+9.88526L134.917+6.64923C134.917+6.29067+135.208+6+135.568+6Z" opacity="1" fill="#000000"/>
<path d="M129.812+2C128.808+2+128+2.80983+128+3.8125L128+4.53125L130+4.53125L141.344+4.53125C141.344+4.53125+141.584+4.54712+141.781+4.625C141.978+4.70288+142.125+4.84375+142.125+4.84375L145.25+7.96875C145.25+7.96875+145.358+8.06527+145.406+8.1875C145.455+8.30973+145.469+8.5+145.469+8.5L145.469+19.6875L145.469+22L146.188+22C147.192+22+148+21.1902+148+20.1875L148+17.125L148+6.9375C148+6.9375+147.986+6.77848+147.938+6.65625C147.889+6.53402+147.813+6.43751+147.812+6.4375L143.688+2.3125C143.688+2.3125+143.541+2.17162+143.344+2.09375C143.147+2.01587+142.875+2.00001+142.875+2L132.562+2L129.812+2Z" opacity="1" fill="#000000"/>
<path d="M68.9915+9.33333C67.2972+9.33333+66+10.9435+66+12.849L66+22.5104C66+24.4159+67.2972+26+68.9915+26L81.0085+26C82.7028+26+84+24.4159+84+22.5104L84+12.849C84+10.9435+82.7028+9.33333+81.0085+9.33333L79.0909+9.33333L79.0909+11L81.0085+11C81.7258+11+82.3636+11.8032+82.3636+12.849L82.3636+22.5104C82.3636+23.5562+81.7258+24.3333+81.0085+24.3333L68.9915+24.3333C68.2742+24.3333+67.6364+23.5562+67.6364+22.5104L67.6364+12.849C67.6364+11.8032+68.2742+11+68.9915+11L70.9091+11L70.9091+9.33333L68.9915+9.33333Z" opacity="1" fill="#000000"/>
<path d="M70.0909+10.1667C70.0909+9.70643+70.4572+9.33333+70.9091+9.33333C71.361+9.33333+71.7273+9.70643+71.7273+10.1667C71.7273+10.6269+71.361+11+70.9091+11C70.4572+11+70.0909+10.6269+70.0909+10.1667Z" opacity="1" fill="#000000"/>
<path d="M78.2727+10.1667C78.2727+9.70643+78.639+9.33333+79.0909+9.33333C79.5428+9.33333+79.9091+9.70643+79.9091+10.1667C79.9091+10.6269+79.5428+11+79.0909+11C78.639+11+78.2727+10.6269+78.2727+10.1667Z" opacity="1" fill="#000000"/>
<path d="M45+4L45+4C45.5523+4+46+4.44772+46+5L46+25C46+25.5523+45.5523+26+45+26L45+26C44.4477+26+44+25.5523+44+25L44+5C44+4.44772+44.4477+4+45+4Z" opacity="1" fill="#000000"/>
<path d="M35+14L55+14C55.5523+14+56+14.4477+56+15L56+15C56+15.5523+55.5523+16+55+16L35+16C34.4477+16+34+15.5523+34+15L34+15C34+14.4477+34.4477+14+35+14Z" opacity="1" fill="#000000"/>
<path d="M158.873+43.2482C158.873+43.8005+158.426+44.2482+157.873+44.2482C157.321+44.2482+156.873+43.8005+156.873+43.2482C156.873+42.6959+157.321+42.2482+157.873+42.2482C158.426+42.2482+158.873+42.6959+158.873+43.2482Z" opacity="1" fill="#000000"/>
<path d="M159.625+5.4375C159.371+5.46022+159.115+5.56995+158.938+5.78125L155.188+10.2812C155.181+10.2879+154.875+10.5915+154.875+11C154.875+11.4085+155.161+11.7253+155.188+11.75L158.875+16.0938C159.052+16.305+159.308+16.446+159.562+16.4688C159.817+16.4915+160.07+16.3961+160.281+16.2188C160.704+15.8641+160.761+15.2351+160.406+14.8125L158.031+12C158.031+12+168.043+12+168.906+12C171.668+12+173.906+14.2386+173.906+17C173.906+19.7614+171.668+22+168.906+22L166+22C165.448+22+165+22.4477+165+23C165+23.5523+165.448+24+166+24L168.906+24C172.772+24+175.906+20.866+175.906+17C175.906+13.134+172.772+10+168.906+10C168.043+10+158+10+158+10L160.469+7.0625C160.823+6.6399+160.766+6.01085+160.344+5.65625C160.132+5.47895+159.879+5.41478+159.625+5.4375Z" opacity="1" fill="#000000"/>
<path d="M201.399+5.79138C201.653+5.81409+201.91+5.92383+202.087+6.13513L205.837+10.6351C205.844+10.6417+206.149+10.9454+206.149+11.3539C206.15+11.7624+205.864+12.0791+205.837+12.1039L202.149+16.4476C201.972+16.6589+201.716+16.7999+201.462+16.8226C201.208+16.8453+200.954+16.7499+200.743+16.5726C200.321+16.218+200.264+15.589+200.618+15.1664L202.993+12.3539C202.993+12.3539+192.981+12.3539+192.118+12.3539C189.357+12.3539+187.118+14.5925+187.118+17.3539C187.118+20.1153+189.357+22.3539+192.118+22.3539L195.024+22.3539C195.577+22.3539+196.024+22.8016+196.024+23.3539C196.024+23.9062+195.577+24.3539+195.024+24.3539L192.118+24.3539C188.252+24.3539+185.118+21.2199+185.118+17.3539C185.118+13.4879+188.252+10.3539+192.118+10.3539C192.981+10.3539+203.024+10.3539+203.024+10.3539L200.556+7.41638C200.201+6.99378+200.258+6.36473+200.681+6.01013C200.892+5.83282+201.145+5.76866+201.399+5.79138Z" opacity="1" fill="#000000"/>
<path d="M8.3125+6C7.95207+6+7.61495+6.18628+7.4375+6.5L3.125+14.125C3.04006+14.2752+3+14.4212+3+14.5938L3+23.4062C3.02212+24.8922+4.21772+26.5158+6.15625+26.5312L23.8438+26.5312C25.5917+26.5313+27+25.148+27+23.4062L27+14.5938C27+14.4212+26.9599+14.2752+26.875+14.125L22.5625+6.5C22.3851+6.18628+22.0479+6+21.6875+6C20.0125+6+9.9875+6+8.3125+6ZM8.875+8C11.0272+8+18.9728+8+21.125+8L24.2812+13.5938L19.4062+13.5938C18.8509+13.5938+18.4019+14.0697+18.4062+14.625C18.4062+16.4808+16.8796+18+15+18C13.1204+18+11.5937+16.4808+11.5938+14.625C11.5981+14.0697+11.1491+13.5937+10.5938+13.5938C9.9838+13.5938+7.50419+13.5938+5.71875+13.5938L8.875+8ZM5+15.5938C6.36789+15.5938+8.53671+15.5938+9.78125+15.5938C10.2531+18.0793+12.3633+20+15+20C17.6367+20+19.7469+18.0793+20.2188+15.5938L25+15.5938L25+23.4062C25+24.0397+24.4908+24.5312+23.8438+24.5312L6.15625+24.5312C5.46765+24.5465+5.0557+24.1381+5+23.4062L5+15.5938Z" opacity="1" fill="#000000"/>
<path d="M220.249+6.5239L232.325+13.2944C234.548+14.5408+234.56+16.5834+232.352+17.8566L219.942+25.0134C217.734+26.2866+215.97+25.2547+216+22.7084L216.168+8.8774C216.199+6.33118+218.026+5.27748+220.249+6.5239Z" opacity="1" fill="#000000"/>
<path d="M248.688+6C247.234+5.88987+246.179+6.96533+246.156+8.875L246+22.7188C245.969+25.265+247.73+26.2732+249.938+25L252.031+23.8125L249.875+21.3438C249.556+21.0584+249.344+20.5972+249.344+20.125C249.343+19.6579+249.569+19.2018+249.812+19L252.688+15.8125C252.98+15.539+253.379+15.3765+253.781+15.3438C254.184+15.311+254.589+15.4048+254.906+15.625C255.662+16.1492+255.775+17.2698+255.156+17.9688L254.656+18.5312L261.156+18.5312L262.344+17.8438C264.552+16.5705+264.536+14.5277+262.312+13.2812L250.25+6.53125C249.694+6.21965+249.172+6.03671+248.688+6Z" opacity="1" fill="#000000"/>
<path d="M283.125+16.2936L280.281+19.4499C280.147+19.565+280+19.8266+280+20.1374C280+20.4485+280.151+20.7115+280.313+20.8561L283.156+24.1061C283.517+24.5138+284.135+24.571+284.563+24.2311C284.998+23.8847+285.085+23.2393+284.719+22.8249L283.219+21.1374L292.469+21.1374C293.026+21.1374+293.5+20.6791+293.5+20.1374C293.5+19.5957+293.026+19.1686+292.469+19.1686L283.219+19.1686L284.656+17.5436C285.023+17.1286+284.959+16.465+284.531+16.1686C284.159+15.9105+283.497+15.9461+283.125+16.2936Z" opacity="1" fill="#000000"/>
<path d="M305.676+5C305.317+5+305.019+5.29726+305.019+5.65625C305.019+8.25357+305.6+10.3347+306.769+12.0312L319.832+19.6875C319.931+19.29+320.092+18.9226+320.144+18.5C320.276+18.5396+320.514+18.6105+320.832+18.7812C321.407+19.0896+321.978+19.5276+322.519+20.0938C322.566+20.1422+322.599+20.1998+322.644+20.25C323.025+20.6702+323.314+21.1425+323.519+21.6875C323.543+21.7495+323.53+21.8124+323.551+21.875L324.926+22.6875C324.849+22.188+324.924+21.7112+324.738+21.2188C324.477+20.5267+324.107+19.9211+323.613+19.375C323.56+19.316+323.511+19.2445+323.457+19.1875C322.356+18.035+321.235+17.4382+320.457+17.2188C320.406+17.2043+320.383+17.2823+320.332+17.2812C320.332+17.0582+320.303+16.8487+320.301+16.625L324.644+16.5938C325.003+16.5911+325.303+16.2965+325.301+15.9375C325.298+15.5785+325.003+15.3099+324.644+15.3125L320.238+15.3438C320.214+15.0664+320.228+14.7615+320.176+14.5C323.334+12.5973+324.676+9.76516+324.676+5.71875C324.676+5.35976+324.378+5.0625+324.019+5.0625C323.661+5.0625+323.363+5.35976+323.363+5.71875C323.363+9.24288+322.275+11.6098+319.707+13.25C319.505+12.9015+319.248+12.5648+318.894+12.3125C318.243+11.8472+317.196+13.3502+314.301+13.2188C311.405+13.0873+311.098+11.4448+310.238+12.3125C309.983+12.5695+309.913+12.9439+309.738+13.25C307.333+11.5652+306.301+9.17876+306.301+5.65625C306.301+5.29726+306.035+5+305.676+5ZM314.738+8.78125C313.144+8.78125+311.863+9.86121+311.863+11.1875C311.863+11.8709+313.19+12.2709+314.676+12.25C316.073+12.2303+317.644+11.8304+317.644+11.1875C317.644+9.86121+316.332+8.78125+314.738+8.78125ZM304.957+15.25C304.598+15.2526+304.298+15.5473+304.301+15.9062C304.303+16.2652+304.598+16.5651+304.957+16.5625L308.519+16.5312L306.332+15.25L304.957+15.25ZM308.832+16.7188C308.813+16.9041+308.801+17.0862+308.801+17.2812C308.801+17.3137+308.8+17.3426+308.801+17.375C308.774+17.3791+308.764+17.3364+308.738+17.3438C307.96+17.5632+306.84+18.16+305.738+19.3125C305.684+19.3695+305.635+19.4097+305.582+19.4688C305.088+20.0149+304.718+20.6517+304.457+21.3438C304.003+22.5478+303.932+23.8158+304.051+24.9375C304.068+25.0994+304.069+25.2103+304.082+25.2812C304.147+25.6342+304.479+25.8778+304.832+25.8125C305.185+25.7472+305.429+25.3843+305.363+25.0312C305.356+24.9923+305.345+24.9084+305.332+24.7812C305.233+23.8438+305.304+22.7979+305.676+21.8125C305.881+21.2675+306.17+20.764+306.551+20.3438C306.596+20.2935+306.629+20.236+306.676+20.1875C307.217+19.6213+307.82+19.2146+308.394+18.9062C308.687+18.7495+308.856+18.67+308.988+18.625C309.48+22.2053+311.751+24.9688+314.582+24.9688C316.234+24.9687+317.629+23.9643+318.644+22.4688L308.832+16.7188Z" opacity="1" fill="#000000"/>
<path d="M335.688+5C335.329+5+335.031+5.29726+335.031+5.65625C335.031+8.25357+335.612+10.3347+336.781+12.0312L342.656+15.4688C342.982+15.2321+343.35+15.0321+343.75+15C344.23+14.9615+344.708+15.0763+345.094+15.3438C345.731+15.7859+345.83+16.528+345.688+17.25L347.219+18.1562L352.219+18.1562C351.564+17.6933+350.948+17.3539+350.469+17.2188C350.417+17.2043+350.395+17.2823+350.344+17.2812C350.344+17.0582+350.314+16.8487+350.312+16.625L354.656+16.5938C355.015+16.5911+355.315+16.2965+355.312+15.9375C355.31+15.5785+355.015+15.3099+354.656+15.3125L350.25+15.3438C350.225+15.0664+350.24+14.7615+350.188+14.5C353.345+12.5973+354.687+9.76516+354.688+5.71875C354.688+5.35976+354.39+5.0625+354.031+5.0625C353.672+5.0625+353.375+5.35976+353.375+5.71875C353.375+9.24288+352.287+11.6098+349.719+13.25C349.517+12.9015+349.259+12.5648+348.906+12.3125C348.255+11.8472+347.208+13.3502+344.312+13.2188C341.417+13.0873+341.11+11.4448+340.25+12.3125C339.995+12.5695+339.925+12.9439+339.75+13.25C337.345+11.5652+336.312+9.17876+336.312+5.65625C336.312+5.29726+336.047+5+335.688+5ZM344.75+8.78125C343.156+8.78125+341.875+9.86121+341.875+11.1875C341.875+11.8709+343.202+12.2709+344.688+12.25C346.085+12.2303+347.656+11.8304+347.656+11.1875C347.656+9.86121+346.344+8.78125+344.75+8.78125ZM334.969+15.25C334.61+15.2526+334.31+15.5473+334.312+15.9062C334.315+16.2652+334.61+16.5651+334.969+16.5625L338.531+16.5312L336.344+15.25L334.969+15.25ZM338.844+16.7188C338.825+16.9041+338.813+17.0862+338.812+17.2812C338.813+17.3137+338.812+17.3426+338.812+17.375C338.786+17.3791+338.776+17.3364+338.75+17.3438C337.971+17.5632+336.851+18.16+335.75+19.3125C335.696+19.3695+335.647+19.4097+335.594+19.4688C335.1+20.0149+334.73+20.6517+334.469+21.3438C334.015+22.5478+333.944+23.8158+334.062+24.9375C334.08+25.0994+334.081+25.2102+334.094+25.2812C334.159+25.6342+334.491+25.8778+334.844+25.8125C335.197+25.7472+335.44+25.3843+335.375+25.0312C335.368+24.9923+335.357+24.9084+335.344+24.7812C335.245+23.8438+335.316+22.7979+335.688+21.8125C335.893+21.2675+336.182+20.7639+336.562+20.3438C336.608+20.2935+336.641+20.236+336.688+20.1875C337.229+19.6213+337.832+19.2146+338.406+18.9062C338.698+18.7495+338.868+18.67+339+18.625C339.046+18.961+339.174+19.2425+339.25+19.5625C339.351+19.3031+339.377+19.0021+339.562+18.8125L339.531+18.7812L340.5+17.6875L338.844+16.7188ZM345.438+22.125L345.469+22.1562C346.153+22.9295+345.994+24.0237+345.312+24.75C346.629+24.4914+347.803+23.7255+348.656+22.4688L348.062+22.125L345.438+22.125Z" opacity="1" fill="#000000"/>
<path d="M302.908+35.7621C302.549+35.7621+302.252+36.0594+302.252+36.4184C302.252+40.3829+303.489+43.2142+306.346+45.1684C306.277+45.4241+306.264+45.7101+306.221+45.9809L302.19+46.0121C301.831+46.0147+301.531+46.3094+301.533+46.6684C301.536+47.0273+301.831+47.3272+302.19+47.3246L306.096+47.2934C306.085+47.5494+306.033+47.7827+306.033+48.0434C306.033+48.0758+306.033+48.1047+306.033+48.1371C306.007+48.1413+305.997+48.0985+305.971+48.1059C305.192+48.3253+304.072+48.9222+302.971+50.0746C302.916+50.1316+302.868+50.1719+302.815+50.2309C302.32+50.777+301.95+51.4138+301.69+52.1059C301.236+53.3099+301.165+54.5779+301.283+55.6996C301.3+55.8615+301.302+55.9724+301.315+56.0434C301.38+56.3964+301.712+56.6399+302.065+56.5746C302.418+56.5093+302.661+56.1464+302.596+55.7934C302.589+55.7544+302.578+55.6705+302.565+55.5434C302.466+54.6059+302.537+53.56+302.908+52.5746C303.114+52.0296+303.403+51.5261+303.783+51.1059C303.829+51.0556+303.862+50.9981+303.908+50.9496C304.449+50.3834+305.053+49.9768+305.627+49.6684C305.919+49.5116+306.089+49.4321+306.221+49.3871C306.712+52.9674+308.983+55.7309+311.815+55.7309C314.679+55.7309+316.923+52.9034+317.377+49.2621C317.509+49.3018+317.747+49.3727+318.065+49.5434C318.639+49.8518+319.211+50.2897+319.752+50.8559C319.798+50.9044+319.832+50.9619+319.877+51.0121C320.257+51.4323+320.547+51.9046+320.752+52.4496C321.124+53.435+321.195+54.5121+321.096+55.4496C321.082+55.5768+321.072+55.6607+321.065+55.6996C320.999+56.0526+321.243+56.3843+321.596+56.4496C321.949+56.5149+322.281+56.2714+322.346+55.9184C322.359+55.8474+322.391+55.7366+322.408+55.5746C322.527+54.4529+322.425+53.1849+321.971+51.9809C321.71+51.2888+321.34+50.6832+320.846+50.1371C320.793+50.0781+320.744+50.0066+320.69+49.9496C319.588+48.7972+318.468+48.2003+317.69+47.9809C317.638+47.9664+317.616+48.0444+317.565+48.0434C317.565+47.8203+317.535+47.6108+317.533+47.3871L321.877+47.3559C322.236+47.3533+322.536+47.0586+322.533+46.6996C322.531+46.3406+322.236+46.072+321.877+46.0746L317.471+46.1059C317.446+45.8285+317.461+45.5236+317.408+45.2621C320.566+43.3594+321.908+40.5273+321.908+36.4809C321.908+36.1219+321.611+35.8246+321.252+35.8246C320.893+35.8246+320.596+36.1219+320.596+36.4809C320.596+40.005+319.507+42.372+316.94+44.0121C316.738+43.6636+316.48+43.327+316.127+43.0746C315.476+42.6093+314.429+44.1123+311.533+43.9809C308.638+43.8495+308.331+42.2069+307.471+43.0746C307.216+43.3316+307.146+43.706+306.971+44.0121C304.566+42.3273+303.533+39.9409+303.533+36.4184C303.533+36.0594+303.267+35.7621+302.908+35.7621ZM311.971+39.5434C310.377+39.5434+309.096+40.6233+309.096+41.9496C309.096+42.633+310.423+43.033+311.908+43.0121C313.306+42.9925+314.877+42.5925+314.877+41.9496C314.877+40.6233+313.565+39.5434+311.971+39.5434Z" opacity="1" fill="#000000"/>
<path d="M283.125+16.2936L280.281+19.4499C280.147+19.565+280+19.8266+280+20.1374C280+20.4485+280.151+20.7115+280.313+20.8561L283.156+24.1061C283.517+24.5138+284.135+24.571+284.563+24.2311C284.998+23.8847+285.085+23.2393+284.719+22.8249L283.219+21.1374L292.469+21.1374C293.026+21.1374+293.5+20.6791+293.5+20.1374C293.5+19.5957+293.026+19.1686+292.469+19.1686L283.219+19.1686L284.656+17.5436C285.023+17.1286+284.959+16.465+284.531+16.1686C284.159+15.9105+283.497+15.9461+283.125+16.2936Z" opacity="1" fill="#000000"/>
</g>
</svg>
